<?xml version="1.0" encoding="UTF-8"?>
<svg version="1.1" xmlns="http://www.w3.org/2000/svg" width="587" height="587">
<path d="M0 0 C2.88905075 0.00536273 5.7779461 0.0000202 8.66699219 -0.00634766 C39.32210486 -0.01930972 68.89261474 4.95278689 97.89355469 15.13037109 C98.65458496 15.3951123 99.41561523 15.65985352 100.19970703 15.93261719 C150.54065246 33.68057826 198.14656516 65.50336006 230.89355469 108.13037109 C231.66570313 109.09716797 232.43785156 110.06396484 233.23339844 111.06005859 C270.44445522 158.2058209 294.79099999 218.88391197 295.09667969 279.38818359 C295.103694 280.32627869 295.11070831 281.26437378 295.11793518 282.230896 C295.13532501 285.2391039 295.14178692 288.24711478 295.14355469 291.25537109 C295.1445668 292.79937592 295.1445668 292.79937592 295.14559937 294.37457275 C295.12949253 309.83923873 294.66484384 324.87737016 291.89355469 340.13037109 C291.64412109 341.56703125 291.64412109 341.56703125 291.38964844 343.03271484 C279.2778882 411.3071559 242.36324428 477.51735883 186.89355469 520.13037109 C185.92675781 520.90251953 184.95996094 521.67466797 183.96386719 522.47021484 C147.16212432 551.51697698 103.75819239 570.78347942 57.83105469 579.88037109 C56.34424194 580.17862793 56.34424194 580.17862793 54.82739258 580.48291016 C37.74456397 583.69118561 20.61332579 584.51361512 3.26855469 584.44287109 C2.30933105 584.44071594 1.35010742 584.43856079 0.36181641 584.43634033 C-14.9806789 584.38125458 -29.96122654 583.7862257 -45.10644531 581.13037109 C-46.18039551 580.94764648 -47.2543457 580.76492188 -48.36083984 580.57666016 C-75.17288784 575.85128402 -101.73626706 567.30271165 -126.10644531 555.13037109 C-126.93966309 554.72383301 -127.77288086 554.31729492 -128.63134766 553.8984375 C-147.8820987 544.46560548 -165.60592727 532.79994242 -182.10644531 519.13037109 C-182.64188965 518.69644043 -183.17733398 518.26250977 -183.72900391 517.81542969 C-198.84175588 505.55685846 -213.36341582 491.67613316 -225.10644531 476.13037109 C-225.8734375 475.16873047 -226.64042969 474.20708984 -227.43066406 473.21630859 C-256.72212488 436.36688465 -275.76412252 392.99075859 -284.85644531 346.94287109 C-285.05520264 345.94739258 -285.25395996 344.95191406 -285.45874023 343.92626953 C-288.67398769 326.84259724 -289.48421688 309.85491251 -289.41894531 292.50537109 C-289.4171225 291.49568268 -289.41529968 290.48599426 -289.41342163 289.44570923 C-289.36695106 274.13115921 -288.80042787 259.2389465 -286.10644531 244.13037109 C-285.85701172 242.63715332 -285.85701172 242.63715332 -285.60253906 241.11376953 C-274.08689515 173.06484413 -236.22734587 106.44096939 -181.10644531 64.13037109 C-179.84398585 63.12869978 -178.58232704 62.12601887 -177.32128906 61.12255859 C-152.5356294 41.57050094 -124.81107263 26.75495918 -95.10644531 16.13037109 C-94.0886499 15.75477051 -94.0886499 15.75477051 -93.05029297 15.37158203 C-81.87542106 11.25097623 -70.31265248 8.5587071 -58.74926758 5.77319336 C-56.42543728 5.20796055 -54.10961206 4.61852502 -51.79394531 4.02099609 C-34.87046768 -0.06645401 -17.30600058 -0.0381448 0 0 Z " fill="#4B83ED" transform="translate(291.1064453125,0.86962890625)"/>
<path d="M0 0 C1.10988281 0.30550781 2.21976563 0.61101562 3.36328125 0.92578125 C17.23411393 5.2456895 33.0445656 13.96173181 40.12304688 27.08154297 C43.83813591 34.33258993 47.21631971 41.73921236 50.0625 49.375 C58.39679852 70.94612557 77.70750535 83.19828875 95.75 96.125 C97.50382258 97.41147158 99.25412874 98.70275819 101 100 C102.06347656 100.7734375 102.06347656 100.7734375 103.1484375 101.5625 C112.88472919 109.25917327 120.86730622 122.804277 123 135 C124.90878053 151.75298768 123.17297287 171.69767632 113.01171875 185.73828125 C101.97791651 198.14327445 86.90683244 203.07182581 70.63330078 204.15795898 C46.54664784 205.21737751 21.49233165 202.34168674 -1.09863281 193.68896484 C-4.34504828 192.51261861 -7.66195344 191.62525557 -11 190.75 C-12.11375 190.45609375 -13.2275 190.1621875 -14.375 189.859375 C-17.16576121 189.19777213 -19.92993868 188.6299562 -22.74609375 188.1015625 C-28.3194933 187.00688157 -33.655637 185.34638927 -39.0625 183.625 C-45.77288631 181.53091422 -52.44290163 179.55708328 -59.3125 178.0625 C-75.89111276 174.40016345 -92.19413529 169.00463959 -107.97705078 162.77294922 C-110.18753897 161.92834319 -112.4156908 161.15146885 -114.65234375 160.37890625 C-125.44684408 156.5782331 -135.59786743 151.8684328 -145.6875 146.5 C-146.27873657 146.18902374 -146.86997314 145.87804749 -147.47912598 145.55764771 C-160.16495292 138.84997805 -169.74420282 130.85617566 -179 120 C-179.52722656 119.44054687 -180.05445313 118.88109375 -180.59765625 118.3046875 C-186.98891343 110.83844822 -188.71799541 97.65045576 -188.31640625 88.12890625 C-186.53527278 70.51547531 -180.90797135 56.76148788 -167.3984375 44.671875 C-154.27474405 34.4603556 -138.21846593 33.4137808 -122.27124023 31.14819336 C-105.80463067 28.7859125 -91.48241329 25.53806003 -76.875 17.1875 C-75.93052002 16.66269043 -74.98604004 16.13788086 -74.01293945 15.59716797 C-68.95496825 12.7645652 -64.04399227 9.78750877 -59.1875 6.625 C-40.90608077 -4.66507544 -20.5035986 -6.11861347 0 0 Z " fill="#E8E8E8" transform="translate(291,308)"/>
<path d="M0 0 C13.11287415 9.63061712 21.7985689 23.96829944 26.44921875 39.32421875 C26.75907715 40.34273926 26.75907715 40.34273926 27.07519531 41.38183594 C30.11481178 51.92411551 31.19024072 62.31254107 31.13671875 73.26171875 C31.1325293 74.44499756 31.12833984 75.62827637 31.12402344 76.84741211 C31.01303976 85.5000064 30.22822074 93.63977126 28.27294922 102.05859375 C27.79356517 104.21190969 27.40050203 106.37086274 27.015625 108.54296875 C23.64507578 126.72110302 14.44278859 146.94352121 -1.15625 157.81640625 C-12.20603192 164.69847546 -24.9437297 165.83622173 -37.59375 163.421875 C-54.61314624 158.29183707 -69.89104557 142.36645451 -78.28417969 127.05175781 C-90.73547917 103.32853591 -97.21428018 80.37364608 -89.17578125 53.94921875 C-83.50684894 38.0662918 -76.106254 24.08524837 -64.17578125 12.07421875 C-63.30695313 11.18992187 -62.438125 10.305625 -61.54296875 9.39453125 C-45.65486639 -5.79628763 -19.6016022 -11.88633442 0 0 Z " fill="#E8E8E8" transform="translate(283.17578125,62.92578125)"/>
<path d="M0 0 C1.25305072 1.05561626 2.48229129 2.14007488 3.6875 3.25 C4.35265625 3.83652344 5.0178125 4.42304687 5.703125 5.02734375 C19.41204122 17.82058808 26.02971358 35.59798592 26.80419922 54.02685547 C27.56173883 77.66887541 25.87141475 99.69940524 9.6875 118.25 C8.35170974 119.97726938 7.01844878 121.70649726 5.6875 123.4375 C-5.38367927 137.825261 -28.48369395 153.11666674 -46.66015625 155.56640625 C-61.88448436 156.94645326 -75.90756184 157.47930285 -88.3125 147.25 C-98.8542371 137.31989952 -102.24885828 123.05841948 -102.70727539 108.96826172 C-103.05111141 86.08646578 -97.48321952 64.65885857 -87.3125 44.25 C-86.7865625 43.18007812 -86.260625 42.11015625 -85.71875 41.0078125 C-79.59938041 29.27902078 -72.57581716 16.83195112 -61.5625 9.25 C-60.9334375 8.81212158 -60.304375 8.37424316 -59.65625 7.9230957 C-58.42005811 7.06666886 -57.18122182 6.21404325 -55.93945312 5.36572266 C-54.65159191 4.48254052 -53.37781846 3.57881911 -52.109375 2.66796875 C-37.13552758 -7.58586155 -15.43960278 -11.14574875 0 0 Z " fill="#E8E8E8" transform="translate(423.3125,89.75)"/>
<path d="M0 0 C13.36062069 7.58256236 21.72943683 16.08244547 28.86328125 29.625 C29.53431394 30.81631458 30.20740937 32.00647024 30.8828125 33.1953125 C42.50539972 54.67874741 43.18518205 78.54473104 36.796875 101.73291016 C30.53740454 121.12351869 16.73247921 138.71147974 -1.13671875 148.625 C-13.90135324 154.91628578 -31.04701446 155.84766807 -44.8828125 152.4296875 C-56.98731579 148.10814906 -67.17827213 137.87107475 -73.13671875 126.625 C-83.45926092 102.15976226 -75.32951468 73.1212011 -66.01074219 49.80810547 C-56.78937917 27.66171725 -43.9690711 8.37127326 -21.30078125 -1.33984375 C-13.97594589 -3.7362405 -6.99194326 -3.2116103 0 0 Z " fill="#E8E8E8" transform="translate(164.13671875,173.375)"/>
<path d="M0 0 C0.90814453 -0.020625 1.81628906 -0.04125 2.75195312 -0.0625 C12.54322808 -0.11857029 19.57659425 2.06662298 26.68359375 8.9140625 C42.96592855 26.77981702 43.63814119 50.58990894 42.99169922 73.43603516 C42.60638689 81.63678336 41.05005808 89.37193091 38.8125 97.25 C38.50699219 98.36640869 38.50699219 98.36640869 38.1953125 99.50537109 C32.240828 120.73660018 22.73296908 141.9504449 2.8125 153.25 C-6.2673288 157.47347655 -13.91521948 159.89599945 -23.6875 156.625 C-39.47066091 150.36391138 -48.63668888 136.26575523 -55.1875 121.25 C-57.23575391 116.02541479 -58.76785128 110.67392011 -60.1875 105.25 C-60.37683105 104.53827637 -60.56616211 103.82655273 -60.76123047 103.09326172 C-66.9143454 79.79450501 -68.72630385 56.63894557 -56.9375 34.875 C-47.00520224 19.03062024 -30.41453793 6.03317647 -12.32641602 0.70141602 C-8.26723179 -0.15527062 -4.13357041 0.02298024 0 0 Z " fill="#E8E8E8" transform="translate(444.1875,245.75)"/>
</svg>
